# xmcd
#
# Track frame offsets:
#	150
#	30778
#	61809
#	85709
#	108517
#	127434
#	149178
#	181748
#	199019
#	216889
#	245342
#	267048
#	281001
#	300900
#	317796
#
# Disc length: 4533 seconds
#
# Revision: 1
# Processed by: cddbd v1.4PL0 Copyright (c) Steve Scherf et al.
# Submitted via: audiograbber 1.80
#
DISCID=d511b30f
DTITLE=Gary Moore - Hit Collection
DYEAR=1900
DGENRE=
TTITLE0=Parisienne Walkways
TTITLE1=Stormy monday
TTITLE2=Love that burus
TTITLE3=Nothin's the same
TTITLE4=Still got the blues
TTITLE5=I have founf my love in you
TTITLE6=Picture of the moon
TTITLE7=Spanish guitar
TTITLE8=Always gonna love you
TTITLE9=The prophet
TTITLE10=The hurt
TTITLE11=I loved another woman
TTITLE12=Cold day in hell
TTITLE13=Don't believe a world
TTITLE14=Falling in love with you
EXTD=
EXTT0=
EXTT1=
EXTT2=
EXTT3=
EXTT4=
EXTT5=
EXTT6=
EXTT7=
EXTT8=
EXTT9=
EXTT10=
EXTT11=
EXTT12=
EXTT13=
EXTT14=
PLAYORDER=
